<mxfile host="app.diagrams.net" modified="2024-03-09T11:02:45.343Z" agent="Mozilla/5.0 (Windows NT 10.0; Win64; x64) AppleWebKit/537.36 (KHTML, like Gecko) Chrome/122.0.0.0 Safari/537.36" etag="OaOVy1uztd1jAfmGWE3i" version="24.0.3" type="device">
  <diagram name="Page-1" id="Xko6Xm-x431tN235_NQB">
    <mxGraphModel dx="1985" dy="803" grid="1" gridSize="10" guides="1" tooltips="1" connect="1" arrows="1" fold="1" page="1" pageScale="1" pageWidth="827" pageHeight="1169" math="0" shadow="0">
      <root>
        <mxCell id="0" />
        <mxCell id="1" parent="0" />
        <mxCell id="A-F0P79YrZUNAOueQA5n-2" value="Display Price Prediction" style="ellipse;whiteSpace=wrap;html=1;" parent="1" vertex="1">
          <mxGeometry x="307" y="810" width="107" height="50" as="geometry" />
        </mxCell>
        <mxCell id="A-F0P79YrZUNAOueQA5n-3" value="Retrieve&lt;div&gt;Cryptocurrency Data&lt;/div&gt;" style="ellipse;whiteSpace=wrap;html=1;" parent="1" vertex="1">
          <mxGeometry x="480" y="370" width="107" height="50" as="geometry" />
        </mxCell>
        <mxCell id="A-F0P79YrZUNAOueQA5n-4" value="Download&lt;div&gt;Cryptocurrency Data&lt;/div&gt;" style="ellipse;whiteSpace=wrap;html=1;" parent="1" vertex="1">
          <mxGeometry x="320" y="370" width="107" height="50" as="geometry" />
        </mxCell>
        <mxCell id="A-F0P79YrZUNAOueQA5n-5" value="Predict Cryptocurrency Price" style="ellipse;whiteSpace=wrap;html=1;" parent="1" vertex="1">
          <mxGeometry x="307" y="710" width="107" height="50" as="geometry" />
        </mxCell>
        <mxCell id="A-F0P79YrZUNAOueQA5n-8" value="Train LSTM Model" style="ellipse;whiteSpace=wrap;html=1;" parent="1" vertex="1">
          <mxGeometry x="303" y="585" width="107" height="50" as="geometry" />
        </mxCell>
        <mxCell id="A-F0P79YrZUNAOueQA5n-9" value="Store Cryptocurrency Data" style="ellipse;whiteSpace=wrap;html=1;" parent="1" vertex="1">
          <mxGeometry x="410" y="430" width="107" height="50" as="geometry" />
        </mxCell>
        <mxCell id="A-F0P79YrZUNAOueQA5n-10" value="Normalize Cryptocurrency Data" style="ellipse;whiteSpace=wrap;html=1;" parent="1" vertex="1">
          <mxGeometry x="190" y="420" width="107" height="50" as="geometry" />
        </mxCell>
        <mxCell id="A-F0P79YrZUNAOueQA5n-14" value="User" style="shape=umlActor;verticalLabelPosition=bottom;verticalAlign=top;html=1;outlineConnect=0;" parent="1" vertex="1">
          <mxGeometry x="40" y="460" width="30" height="60" as="geometry" />
        </mxCell>
        <mxCell id="A-F0P79YrZUNAOueQA5n-15" value="Website Visitor" style="shape=umlActor;verticalLabelPosition=bottom;verticalAlign=top;html=1;outlineConnect=0;" parent="1" vertex="1">
          <mxGeometry x="760" y="450" width="30" height="60" as="geometry" />
        </mxCell>
        <mxCell id="A-F0P79YrZUNAOueQA5n-18" value="" style="endArrow=classic;html=1;rounded=0;exitX=0.5;exitY=1;exitDx=0;exitDy=0;entryX=0.5;entryY=0;entryDx=0;entryDy=0;" parent="1" source="A-F0P79YrZUNAOueQA5n-10" target="A-F0P79YrZUNAOueQA5n-8" edge="1">
          <mxGeometry width="50" height="50" relative="1" as="geometry">
            <mxPoint x="-200" y="630" as="sourcePoint" />
            <mxPoint x="-150" y="580" as="targetPoint" />
          </mxGeometry>
        </mxCell>
        <mxCell id="A-F0P79YrZUNAOueQA5n-21" value="" style="endArrow=classic;html=1;rounded=0;exitX=0.5;exitY=1;exitDx=0;exitDy=0;entryX=0.5;entryY=0;entryDx=0;entryDy=0;" parent="1" source="A-F0P79YrZUNAOueQA5n-8" target="A-F0P79YrZUNAOueQA5n-5" edge="1">
          <mxGeometry width="50" height="50" relative="1" as="geometry">
            <mxPoint x="424" y="520" as="sourcePoint" />
            <mxPoint x="266.75" y="703.5" as="targetPoint" />
          </mxGeometry>
        </mxCell>
        <mxCell id="A-F0P79YrZUNAOueQA5n-23" value="Collect Cryptocurrency Data" style="ellipse;whiteSpace=wrap;html=1;" parent="1" vertex="1">
          <mxGeometry x="347" y="160" width="120" height="80" as="geometry" />
        </mxCell>
        <mxCell id="A-F0P79YrZUNAOueQA5n-26" value="" style="endArrow=classic;html=1;rounded=0;exitX=1;exitY=0.3333333333333333;exitDx=0;exitDy=0;exitPerimeter=0;entryX=0;entryY=1;entryDx=0;entryDy=0;" parent="1" source="A-F0P79YrZUNAOueQA5n-14" target="A-F0P79YrZUNAOueQA5n-23" edge="1">
          <mxGeometry width="50" height="50" relative="1" as="geometry">
            <mxPoint x="-390" y="100" as="sourcePoint" />
            <mxPoint x="-340" y="50" as="targetPoint" />
          </mxGeometry>
        </mxCell>
        <mxCell id="A-F0P79YrZUNAOueQA5n-27" value="" style="endArrow=classic;html=1;rounded=0;exitX=0;exitY=0.3333333333333333;exitDx=0;exitDy=0;exitPerimeter=0;entryX=1;entryY=1;entryDx=0;entryDy=0;" parent="1" source="A-F0P79YrZUNAOueQA5n-15" target="A-F0P79YrZUNAOueQA5n-23" edge="1">
          <mxGeometry width="50" height="50" relative="1" as="geometry">
            <mxPoint x="-390" y="650" as="sourcePoint" />
            <mxPoint x="-340" y="600" as="targetPoint" />
          </mxGeometry>
        </mxCell>
        <mxCell id="A-F0P79YrZUNAOueQA5n-28" style="edgeStyle=orthogonalEdgeStyle;rounded=0;orthogonalLoop=1;jettySize=auto;html=1;exitX=0.5;exitY=1;exitDx=0;exitDy=0;" parent="1" source="A-F0P79YrZUNAOueQA5n-4" target="A-F0P79YrZUNAOueQA5n-4" edge="1">
          <mxGeometry relative="1" as="geometry" />
        </mxCell>
        <mxCell id="A-F0P79YrZUNAOueQA5n-31" value="" style="endArrow=classic;html=1;rounded=0;exitX=0.5;exitY=1;exitDx=0;exitDy=0;entryX=0.5;entryY=0;entryDx=0;entryDy=0;" parent="1" source="A-F0P79YrZUNAOueQA5n-23" target="A-F0P79YrZUNAOueQA5n-10" edge="1">
          <mxGeometry width="50" height="50" relative="1" as="geometry">
            <mxPoint x="240" y="420" as="sourcePoint" />
            <mxPoint x="290" y="370" as="targetPoint" />
          </mxGeometry>
        </mxCell>
        <mxCell id="A-F0P79YrZUNAOueQA5n-32" value="" style="endArrow=classic;html=1;rounded=0;entryX=0.5;entryY=0;entryDx=0;entryDy=0;exitX=0.5;exitY=1;exitDx=0;exitDy=0;" parent="1" source="A-F0P79YrZUNAOueQA5n-23" target="A-F0P79YrZUNAOueQA5n-4" edge="1">
          <mxGeometry width="50" height="50" relative="1" as="geometry">
            <mxPoint x="410" y="270" as="sourcePoint" />
            <mxPoint x="440" y="280" as="targetPoint" />
          </mxGeometry>
        </mxCell>
        <mxCell id="A-F0P79YrZUNAOueQA5n-33" value="" style="endArrow=classic;html=1;rounded=0;exitX=0.5;exitY=1;exitDx=0;exitDy=0;entryX=0.5;entryY=0;entryDx=0;entryDy=0;" parent="1" source="A-F0P79YrZUNAOueQA5n-23" target="A-F0P79YrZUNAOueQA5n-9" edge="1">
          <mxGeometry width="50" height="50" relative="1" as="geometry">
            <mxPoint x="150" y="280" as="sourcePoint" />
            <mxPoint x="440" y="310" as="targetPoint" />
          </mxGeometry>
        </mxCell>
        <mxCell id="A-F0P79YrZUNAOueQA5n-34" value="" style="endArrow=classic;html=1;rounded=0;exitX=0.5;exitY=1;exitDx=0;exitDy=0;entryX=0.5;entryY=0;entryDx=0;entryDy=0;" parent="1" source="A-F0P79YrZUNAOueQA5n-23" target="A-F0P79YrZUNAOueQA5n-3" edge="1">
          <mxGeometry width="50" height="50" relative="1" as="geometry">
            <mxPoint x="180" y="200" as="sourcePoint" />
            <mxPoint x="230" y="150" as="targetPoint" />
          </mxGeometry>
        </mxCell>
        <mxCell id="A-F0P79YrZUNAOueQA5n-42" value="&amp;lt;&amp;lt; include &amp;gt;&amp;gt;" style="text;html=1;align=center;verticalAlign=middle;whiteSpace=wrap;rounded=0;rotation=-45;" parent="1" vertex="1">
          <mxGeometry x="280" y="310" width="80" height="30" as="geometry" />
        </mxCell>
        <mxCell id="A-F0P79YrZUNAOueQA5n-43" value="&amp;lt;&amp;lt; include &amp;gt;&amp;gt;" style="text;html=1;align=center;verticalAlign=middle;whiteSpace=wrap;rounded=0;rotation=-70;" parent="1" vertex="1">
          <mxGeometry x="340" y="300" width="80" height="30" as="geometry" />
        </mxCell>
        <mxCell id="A-F0P79YrZUNAOueQA5n-44" value="&amp;lt;&amp;lt; include &amp;gt;&amp;gt;" style="text;html=1;align=center;verticalAlign=middle;whiteSpace=wrap;rounded=0;rotation=75;" parent="1" vertex="1">
          <mxGeometry x="397" y="300" width="80" height="30" as="geometry" />
        </mxCell>
        <mxCell id="A-F0P79YrZUNAOueQA5n-45" value="&amp;lt;&amp;lt; include &amp;gt;&amp;gt;" style="text;html=1;align=center;verticalAlign=middle;whiteSpace=wrap;rounded=0;rotation=45;" parent="1" vertex="1">
          <mxGeometry x="440" y="290" width="80" height="30" as="geometry" />
        </mxCell>
        <mxCell id="A-F0P79YrZUNAOueQA5n-47" value="&amp;lt;&amp;lt; extends &amp;gt;&amp;gt;" style="text;html=1;align=center;verticalAlign=middle;whiteSpace=wrap;rounded=0;rotation=45;" parent="1" vertex="1">
          <mxGeometry x="240" y="500" width="80" height="30" as="geometry" />
        </mxCell>
        <mxCell id="A-F0P79YrZUNAOueQA5n-49" value="&lt;font style=&quot;font-size: 15px;&quot;&gt;Cryptocurrency Prediction System&lt;/font&gt;" style="text;html=1;align=center;verticalAlign=middle;whiteSpace=wrap;rounded=0;" parent="1" vertex="1">
          <mxGeometry x="269" y="80" width="290" height="30" as="geometry" />
        </mxCell>
        <mxCell id="N62siDIGolBGLjO7M_ai-3" value="" style="endArrow=classic;html=1;rounded=0;entryX=0.5;entryY=0;entryDx=0;entryDy=0;" edge="1" parent="1" target="A-F0P79YrZUNAOueQA5n-2">
          <mxGeometry width="50" height="50" relative="1" as="geometry">
            <mxPoint x="360" y="760" as="sourcePoint" />
            <mxPoint x="371" y="720" as="targetPoint" />
          </mxGeometry>
        </mxCell>
      </root>
    </mxGraphModel>
  </diagram>
</mxfile>
